<svg width="291" height="78" viewBox="0 0 291 78" fill="none" xmlns="http://www.w3.org/2000/svg">
<path d="M0 0H257.914L287.395 40.4827V73.1406H0V0Z" fill="#5ACC00"/>
<path d="M100.336 55H83.3213V26.2588H99.668V31.2686H89.4443V38.041H98.9443V43.0322H89.4443V49.9902H100.336V55ZM130.617 55H124.346L112.174 36.4082C111.543 35.4434 111.085 34.6641 110.801 34.0703H110.708C110.819 35.0599 110.875 36.5876 110.875 38.6533V55H105.067V26.2588H111.747L123.474 44.3311C124.253 45.5309 124.729 46.2917 124.902 46.6133H124.995C124.871 45.9206 124.81 44.597 124.81 42.6426V26.2588H130.617V55ZM157.15 31.2686H148.949V55H142.808V31.2686H134.625V26.2588H157.15V31.2686ZM178.117 55H161.103V26.2588H177.449V31.2686H167.226V38.041H176.726V43.0322H167.226V49.9902H178.117V55ZM206.562 55H199.511L195.002 47.5225C194.074 45.9762 193.313 44.9805 192.72 44.5352C192.126 44.0898 191.495 43.8672 190.827 43.8672H188.972V55H182.849V26.2588H192.924C199.764 26.2588 203.185 28.8564 203.185 34.0518C203.185 36.0062 202.609 37.6823 201.459 39.0801C200.321 40.4779 198.75 41.4613 196.746 42.0303V42.1045C198.07 42.5498 199.535 44.0094 201.144 46.4834L206.562 55ZM188.972 30.916V39.1914H191.978C193.412 39.1914 194.563 38.777 195.429 37.9482C196.307 37.1071 196.746 36.0618 196.746 34.8125C196.746 32.2148 195.194 30.916 192.089 30.916H188.972Z" fill="black"/>
<path d="M289.634 46.6626L286.148 41.8639L287.379 40.4563L290.726 44.7244L290.584 45.5742L289.634 46.6626Z" fill="black"/>
<rect x="74.9727" y="75.2305" width="215.755" height="2.08973" fill="black"/>
<path d="M289.062 77.3198V44.929L290.728 44.7208V77.3198H289.062Z" fill="black"/>
<rect x="74.9727" y="73.1406" width="1.66606" height="4.17946" fill="black"/>
</svg>
