<svg width="291" height="78" viewBox="0 0 291 78" fill="none" xmlns="http://www.w3.org/2000/svg">
<path d="M0 0H257.914L287.395 40.4827V73.1406H0V0Z" fill="#5ACC00"/>
<path d="M289.634 46.6626L286.148 41.8639L287.379 40.4563L290.726 44.7244L290.584 45.5742L289.634 46.6626Z" fill="black"/>
<path d="M290.728 75.2305H74.9727V77.3202H290.728V75.2305Z" fill="black"/>
<path d="M289.062 77.3198V44.929L290.728 44.7208V77.3198H289.062Z" fill="black"/>
<path d="M76.6388 73.1406H74.9727V77.3201H76.6388V73.1406Z" fill="black"/>
<path d="M109.914 43.9375V49H92.7578V43.9375H109.914ZM94.7031 14.875V49H88.2578V14.875H94.7031ZM112.656 36.5781V36.0859C112.656 34.2266 112.922 32.5156 113.453 30.9531C113.984 29.375 114.758 28.0078 115.773 26.8516C116.789 25.6953 118.031 24.7969 119.5 24.1562C120.969 23.5 122.641 23.1719 124.516 23.1719C126.422 23.1719 128.109 23.5 129.578 24.1562C131.062 24.7969 132.312 25.6953 133.328 26.8516C134.344 28.0078 135.117 29.375 135.648 30.9531C136.18 32.5156 136.445 34.2266 136.445 36.0859V36.5781C136.445 38.4219 136.18 40.1328 135.648 41.7109C135.117 43.2734 134.344 44.6406 133.328 45.8125C132.312 46.9688 131.07 47.8672 129.602 48.5078C128.133 49.1484 126.453 49.4688 124.562 49.4688C122.688 49.4688 121.008 49.1484 119.523 48.5078C118.039 47.8672 116.789 46.9688 115.773 45.8125C114.758 44.6406 113.984 43.2734 113.453 41.7109C112.922 40.1328 112.656 38.4219 112.656 36.5781ZM118.844 36.0859V36.5781C118.844 37.6875 118.953 38.7266 119.172 39.6953C119.391 40.6641 119.727 41.5156 120.18 42.25C120.633 42.9844 121.219 43.5625 121.938 43.9844C122.672 44.3906 123.547 44.5938 124.562 44.5938C125.562 44.5938 126.422 44.3906 127.141 43.9844C127.859 43.5625 128.445 42.9844 128.898 42.25C129.367 41.5156 129.711 40.6641 129.93 39.6953C130.148 38.7266 130.258 37.6875 130.258 36.5781V36.0859C130.258 34.9922 130.148 33.9688 129.93 33.0156C129.711 32.0469 129.367 31.1953 128.898 30.4609C128.445 29.7109 127.852 29.125 127.117 28.7031C126.398 28.2656 125.531 28.0469 124.516 28.0469C123.516 28.0469 122.656 28.2656 121.938 28.7031C121.219 29.125 120.633 29.7109 120.18 30.4609C119.727 31.1953 119.391 32.0469 119.172 33.0156C118.953 33.9688 118.844 34.9922 118.844 36.0859ZM157.07 23.6406H162.695V48.2266C162.695 50.5234 162.195 52.4688 161.195 54.0625C160.211 55.6719 158.828 56.8906 157.047 57.7188C155.266 58.5625 153.195 58.9844 150.836 58.9844C149.82 58.9844 148.719 58.8438 147.531 58.5625C146.359 58.2812 145.227 57.8359 144.133 57.2266C143.055 56.6328 142.156 55.8594 141.438 54.9062L144.227 51.25C145.07 52.2344 146.023 52.9766 147.086 53.4766C148.148 53.9922 149.297 54.25 150.531 54.25C151.781 54.25 152.844 54.0156 153.719 53.5469C154.609 53.0938 155.289 52.4219 155.758 51.5312C156.242 50.6562 156.484 49.5781 156.484 48.2969V29.4297L157.07 23.6406ZM139.938 36.625V36.1328C139.938 34.1953 140.172 32.4375 140.641 30.8594C141.109 29.2656 141.781 27.8984 142.656 26.7578C143.547 25.6172 144.617 24.7344 145.867 24.1094C147.133 23.4844 148.555 23.1719 150.133 23.1719C151.805 23.1719 153.211 23.4766 154.352 24.0859C155.508 24.6953 156.461 25.5625 157.211 26.6875C157.977 27.8125 158.57 29.1484 158.992 30.6953C159.43 32.2266 159.766 33.9141 160 35.7578V37.0938C159.781 38.8906 159.43 40.5391 158.945 42.0391C158.477 43.5391 157.852 44.8516 157.07 45.9766C156.289 47.0859 155.32 47.9453 154.164 48.5547C153.008 49.1641 151.648 49.4688 150.086 49.4688C148.523 49.4688 147.117 49.1484 145.867 48.5078C144.617 47.8672 143.547 46.9688 142.656 45.8125C141.781 44.6562 141.109 43.2969 140.641 41.7344C140.172 40.1719 139.938 38.4688 139.938 36.625ZM146.125 36.1328V36.625C146.125 37.7188 146.234 38.7422 146.453 39.6953C146.672 40.6484 147.008 41.4922 147.461 42.2266C147.914 42.9453 148.484 43.5078 149.172 43.9141C149.859 44.3203 150.68 44.5234 151.633 44.5234C152.914 44.5234 153.961 44.2578 154.773 43.7266C155.602 43.1797 156.227 42.4375 156.648 41.5C157.086 40.5469 157.367 39.4766 157.492 38.2891V34.6094C157.414 33.6719 157.242 32.8047 156.977 32.0078C156.727 31.2109 156.375 30.5234 155.922 29.9453C155.469 29.3672 154.891 28.9141 154.188 28.5859C153.484 28.2578 152.648 28.0938 151.68 28.0938C150.742 28.0938 149.922 28.3047 149.219 28.7266C148.516 29.1328 147.938 29.7031 147.484 30.4375C147.031 31.1719 146.688 32.0234 146.453 32.9922C146.234 33.9609 146.125 35.0078 146.125 36.1328ZM174.836 23.6406V49H168.625V23.6406H174.836ZM168.203 17.0078C168.203 16.0859 168.516 15.3203 169.141 14.7109C169.781 14.1016 170.641 13.7969 171.719 13.7969C172.797 13.7969 173.648 14.1016 174.273 14.7109C174.914 15.3203 175.234 16.0859 175.234 17.0078C175.234 17.9141 174.914 18.6719 174.273 19.2812C173.648 19.8906 172.797 20.1953 171.719 20.1953C170.641 20.1953 169.781 19.8906 169.141 19.2812C168.516 18.6719 168.203 17.9141 168.203 17.0078ZM186.812 29.0547V49H180.625V23.6406H186.438L186.812 29.0547ZM185.828 35.4062H184C184.016 33.5625 184.266 31.8906 184.75 30.3906C185.234 28.8906 185.914 27.6016 186.789 26.5234C187.68 25.4453 188.734 24.6172 189.953 24.0391C191.172 23.4609 192.531 23.1719 194.031 23.1719C195.25 23.1719 196.352 23.3438 197.336 23.6875C198.32 24.0312 199.164 24.5781 199.867 25.3281C200.586 26.0781 201.133 27.0625 201.508 28.2812C201.898 29.4844 202.094 30.9688 202.094 32.7344V49H195.859V32.6875C195.859 31.5312 195.688 30.6172 195.344 29.9453C195.016 29.2734 194.531 28.7969 193.891 28.5156C193.266 28.2344 192.492 28.0938 191.57 28.0938C190.617 28.0938 189.781 28.2891 189.062 28.6797C188.359 29.0547 187.766 29.5781 187.281 30.25C186.812 30.9219 186.453 31.6953 186.203 32.5703C185.953 33.4453 185.828 34.3906 185.828 35.4062Z" fill="black"/>
</svg>
