<svg width="291" height="78" viewBox="0 0 291 78" fill="none" xmlns="http://www.w3.org/2000/svg">
<path d="M0 0H257.914L287.395 40.4827V73.1406H0V0Z" fill="#5ACC00"/>
<path d="M289.634 46.6626L286.148 41.8639L287.379 40.4563L290.726 44.7244L290.584 45.5742L289.634 46.6626Z" fill="black"/>
<path d="M290.728 75.2305H74.9727V77.3202H290.728V75.2305Z" fill="black"/>
<path d="M289.062 77.3198V44.929L290.728 44.7208V77.3198H289.062Z" fill="black"/>
<path d="M76.6388 73.1406H74.9727V77.3201H76.6388V73.1406Z" fill="black"/>
<path d="M82.1172 46.1406C82.1172 45.4844 82.0156 44.8984 81.8125 44.3828C81.625 43.8516 81.2734 43.375 80.7578 42.9531C80.2578 42.5156 79.5469 42.0938 78.625 41.6875C77.7188 41.2656 76.5469 40.8281 75.1094 40.375C73.5156 39.875 72.0312 39.3125 70.6562 38.6875C69.2812 38.0625 68.0703 37.3359 67.0234 36.5078C65.9922 35.6797 65.1875 34.7266 64.6094 33.6484C64.0312 32.5547 63.7422 31.2891 63.7422 29.8516C63.7422 28.4453 64.0391 27.1641 64.6328 26.0078C65.2422 24.8516 66.1016 23.8594 67.2109 23.0312C68.3203 22.1875 69.625 21.5391 71.125 21.0859C72.6406 20.6328 74.3125 20.4062 76.1406 20.4062C78.6719 20.4062 80.8594 20.8672 82.7031 21.7891C84.5625 22.7109 86 23.9609 87.0156 25.5391C88.0312 27.1172 88.5391 28.8906 88.5391 30.8594H82.1172C82.1172 29.7969 81.8906 28.8594 81.4375 28.0469C81 27.2344 80.3281 26.5938 79.4219 26.125C78.5312 25.6562 77.4062 25.4219 76.0469 25.4219C74.7344 25.4219 73.6406 25.6172 72.7656 26.0078C71.9062 26.3984 71.2578 26.9297 70.8203 27.6016C70.3984 28.2734 70.1875 29.0234 70.1875 29.8516C70.1875 30.4766 70.3359 31.0391 70.6328 31.5391C70.9297 32.0234 71.375 32.4844 71.9688 32.9219C72.5625 33.3438 73.2969 33.7422 74.1719 34.1172C75.0625 34.4766 76.0938 34.8359 77.2656 35.1953C79.1406 35.7578 80.7812 36.3828 82.1875 37.0703C83.6094 37.7578 84.7891 38.5391 85.7266 39.4141C86.6797 40.2891 87.3906 41.2734 87.8594 42.3672C88.3438 43.4609 88.5859 44.7031 88.5859 46.0938C88.5859 47.5625 88.2969 48.875 87.7188 50.0312C87.1406 51.1875 86.3125 52.1719 85.2344 52.9844C84.1562 53.7969 82.8594 54.4141 81.3438 54.8359C79.8438 55.2578 78.1641 55.4688 76.3047 55.4688C74.6484 55.4688 73.0078 55.25 71.3828 54.8125C69.7734 54.3594 68.3125 53.6875 67 52.7969C65.6875 51.8906 64.6406 50.75 63.8594 49.375C63.0781 47.9844 62.6875 46.3594 62.6875 44.5H69.1562C69.1562 45.5781 69.3281 46.5 69.6719 47.2656C70.0312 48.0156 70.5312 48.6328 71.1719 49.1172C71.8281 49.5859 72.5938 49.9297 73.4688 50.1484C74.3438 50.3672 75.2891 50.4766 76.3047 50.4766C77.6172 50.4766 78.6953 50.2969 79.5391 49.9375C80.3984 49.5625 81.0391 49.0469 81.4609 48.3906C81.8984 47.7344 82.1172 46.9844 82.1172 46.1406ZM99.6484 29.6406V55H93.4375V29.6406H99.6484ZM93.0156 23.0078C93.0156 22.0859 93.3281 21.3203 93.9531 20.7109C94.5938 20.1016 95.4531 19.7969 96.5312 19.7969C97.6094 19.7969 98.4609 20.1016 99.0859 20.7109C99.7266 21.3203 100.047 22.0859 100.047 23.0078C100.047 23.9141 99.7266 24.6719 99.0859 25.2812C98.4609 25.8906 97.6094 26.1953 96.5312 26.1953C95.4531 26.1953 94.5938 25.8906 93.9531 25.2812C93.3281 24.6719 93.0156 23.9141 93.0156 23.0078ZM121.68 29.6406H127.305V54.2266C127.305 56.5234 126.805 58.4688 125.805 60.0625C124.82 61.6719 123.438 62.8906 121.656 63.7188C119.875 64.5625 117.805 64.9844 115.445 64.9844C114.43 64.9844 113.328 64.8438 112.141 64.5625C110.969 64.2812 109.836 63.8359 108.742 63.2266C107.664 62.6328 106.766 61.8594 106.047 60.9062L108.836 57.25C109.68 58.2344 110.633 58.9766 111.695 59.4766C112.758 59.9922 113.906 60.25 115.141 60.25C116.391 60.25 117.453 60.0156 118.328 59.5469C119.219 59.0938 119.898 58.4219 120.367 57.5312C120.852 56.6562 121.094 55.5781 121.094 54.2969V35.4297L121.68 29.6406ZM104.547 42.625V42.1328C104.547 40.1953 104.781 38.4375 105.25 36.8594C105.719 35.2656 106.391 33.8984 107.266 32.7578C108.156 31.6172 109.227 30.7344 110.477 30.1094C111.742 29.4844 113.164 29.1719 114.742 29.1719C116.414 29.1719 117.82 29.4766 118.961 30.0859C120.117 30.6953 121.07 31.5625 121.82 32.6875C122.586 33.8125 123.18 35.1484 123.602 36.6953C124.039 38.2266 124.375 39.9141 124.609 41.7578V43.0938C124.391 44.8906 124.039 46.5391 123.555 48.0391C123.086 49.5391 122.461 50.8516 121.68 51.9766C120.898 53.0859 119.93 53.9453 118.773 54.5547C117.617 55.1641 116.258 55.4688 114.695 55.4688C113.133 55.4688 111.727 55.1484 110.477 54.5078C109.227 53.8672 108.156 52.9688 107.266 51.8125C106.391 50.6562 105.719 49.2969 105.25 47.7344C104.781 46.1719 104.547 44.4688 104.547 42.625ZM110.734 42.1328V42.625C110.734 43.7188 110.844 44.7422 111.062 45.6953C111.281 46.6484 111.617 47.4922 112.07 48.2266C112.523 48.9453 113.094 49.5078 113.781 49.9141C114.469 50.3203 115.289 50.5234 116.242 50.5234C117.523 50.5234 118.57 50.2578 119.383 49.7266C120.211 49.1797 120.836 48.4375 121.258 47.5C121.695 46.5469 121.977 45.4766 122.102 44.2891V40.6094C122.023 39.6719 121.852 38.8047 121.586 38.0078C121.336 37.2109 120.984 36.5234 120.531 35.9453C120.078 35.3672 119.5 34.9141 118.797 34.5859C118.094 34.2578 117.258 34.0938 116.289 34.0938C115.352 34.0938 114.531 34.3047 113.828 34.7266C113.125 35.1328 112.547 35.7031 112.094 36.4375C111.641 37.1719 111.297 38.0234 111.062 38.9922C110.844 39.9609 110.734 41.0078 110.734 42.1328ZM138.953 35.0547V55H132.766V29.6406H138.578L138.953 35.0547ZM137.969 41.4062H136.141C136.156 39.5625 136.406 37.8906 136.891 36.3906C137.375 34.8906 138.055 33.6016 138.93 32.5234C139.82 31.4453 140.875 30.6172 142.094 30.0391C143.312 29.4609 144.672 29.1719 146.172 29.1719C147.391 29.1719 148.492 29.3438 149.477 29.6875C150.461 30.0312 151.305 30.5781 152.008 31.3281C152.727 32.0781 153.273 33.0625 153.648 34.2812C154.039 35.4844 154.234 36.9688 154.234 38.7344V55H148V38.6875C148 37.5312 147.828 36.6172 147.484 35.9453C147.156 35.2734 146.672 34.7969 146.031 34.5156C145.406 34.2344 144.633 34.0938 143.711 34.0938C142.758 34.0938 141.922 34.2891 141.203 34.6797C140.5 35.0547 139.906 35.5781 139.422 36.25C138.953 36.9219 138.594 37.6953 138.344 38.5703C138.094 39.4453 137.969 40.3906 137.969 41.4062ZM191.102 20.875H197.547V43.5391C197.547 46.1484 196.984 48.3438 195.859 50.125C194.734 51.8906 193.203 53.2266 191.266 54.1328C189.328 55.0234 187.125 55.4688 184.656 55.4688C182.156 55.4688 179.93 55.0234 177.977 54.1328C176.023 53.2266 174.492 51.8906 173.383 50.125C172.273 48.3438 171.719 46.1484 171.719 43.5391V20.875H178.164V43.5391C178.164 45.1328 178.43 46.4375 178.961 47.4531C179.492 48.4531 180.242 49.1953 181.211 49.6797C182.18 50.1641 183.328 50.4062 184.656 50.4062C186 50.4062 187.148 50.1641 188.102 49.6797C189.07 49.1953 189.812 48.4531 190.328 47.4531C190.844 46.4375 191.102 45.1328 191.102 43.5391V20.875ZM209.383 34.5156V64.75H203.172V29.6406H208.914L209.383 34.5156ZM225.672 42.0625V42.5547C225.672 44.3984 225.453 46.1094 225.016 47.6875C224.594 49.25 223.969 50.6172 223.141 51.7891C222.312 52.9453 221.281 53.8516 220.047 54.5078C218.828 55.1484 217.422 55.4688 215.828 55.4688C214.266 55.4688 212.906 55.1719 211.75 54.5781C210.594 53.9688 209.617 53.1094 208.82 52C208.023 50.8906 207.383 49.6016 206.898 48.1328C206.43 46.6484 206.078 45.0312 205.844 43.2812V41.7109C206.078 39.8516 206.43 38.1641 206.898 36.6484C207.383 35.1172 208.023 33.7969 208.82 32.6875C209.617 31.5625 210.586 30.6953 211.727 30.0859C212.883 29.4766 214.234 29.1719 215.781 29.1719C217.391 29.1719 218.805 29.4766 220.023 30.0859C221.258 30.6953 222.297 31.5703 223.141 32.7109C223.984 33.8516 224.617 35.2109 225.039 36.7891C225.461 38.3672 225.672 40.125 225.672 42.0625ZM219.461 42.5547V42.0625C219.461 40.9375 219.359 39.8984 219.156 38.9453C218.953 37.9766 218.641 37.1328 218.219 36.4141C217.797 35.6797 217.25 35.1094 216.578 34.7031C215.906 34.2969 215.094 34.0938 214.141 34.0938C213.188 34.0938 212.367 34.25 211.68 34.5625C210.992 34.875 210.43 35.3203 209.992 35.8984C209.555 36.4766 209.211 37.1641 208.961 37.9609C208.727 38.7422 208.57 39.6094 208.492 40.5625V44.4531C208.633 45.6094 208.906 46.6484 209.312 47.5703C209.719 48.4922 210.312 49.2266 211.094 49.7734C211.891 50.3203 212.922 50.5938 214.188 50.5938C215.141 50.5938 215.953 50.3828 216.625 49.9609C217.297 49.5391 217.844 48.9609 218.266 48.2266C218.688 47.4766 218.992 46.6172 219.18 45.6484C219.367 44.6797 219.461 43.6484 219.461 42.5547Z" fill="black"/>
</svg>
